<?xml version="1.0" standalone="no"?>
<!DOCTYPE svg PUBLIC "-//W3C//DTD SVG 20010904//EN"
 "http://www.w3.org/TR/2001/REC-SVG-20010904/DTD/svg10.dtd">
<svg version="1.0" xmlns="http://www.w3.org/2000/svg"
 width="523.000000pt" height="280.000000pt" viewBox="0 0 523.000000 280.000000"
 preserveAspectRatio="xMidYMid meet">

<g transform="translate(0.000000,280.000000) scale(0.100000,-0.100000)"
fill="#000000" stroke="none">
<path d="M4355 2754 c-22 -7 -41 -14 -42 -14 -8 0 -28 -52 -32 -85 -6 -38 -8
-41 -60 -57 -252 -81 -412 -261 -491 -553 -25 -91 -38 -327 -23 -385 9 -32 10
-26 17 55 19 229 42 334 104 468 l35 77 94 0 c51 0 93 4 93 8 0 4 13 15 29 25
28 16 32 16 147 -19 141 -43 185 -42 244 5 21 17 48 31 60 31 11 0 48 -14 82
-31 95 -48 165 -43 302 21 38 18 92 40 120 50 l51 19 -52 0 c-31 1 -70 -7
-100 -20 -44 -19 -60 -20 -183 -14 -151 7 -152 7 -549 -1 l-284 -5 25 33 26
33 556 3 c306 1 556 6 556 10 0 5 -53 34 -117 65 -190 90 -347 135 -429 122
-49 -7 -53 0 -34 51 32 83 -47 142 -145 108z m83 -74 c26 0 26 0 5 -15 -14
-10 -19 -22 -16 -35 5 -19 3 -20 -20 -9 -21 10 -30 9 -43 -2 -16 -13 -17 -12
-12 9 4 16 0 26 -15 37 -21 15 -21 15 7 15 20 0 29 6 34 22 l5 22 15 -22 c9
-13 25 -22 40 -22z m262 -165 l65 -34 -349 -1 -349 0 44 34 44 35 240 0 240 0
65 -34z"/>
<path d="M3979 2178 c-120 -163 -180 -322 -166 -440 7 -56 47 -147 74 -169 15
-12 16 -12 10 5 -18 47 -38 215 -32 266 12 96 87 290 133 343 8 9 13 19 10 22
-3 3 -16 -9 -29 -27z"/>
<path d="M1975 2110 c-78 -11 -193 -46 -269 -79 -167 -75 -397 -262 -531 -431
l-20 -25 30 25 c17 14 35 30 40 36 6 5 46 39 90 74 270 214 510 303 772 287
119 -7 223 -33 363 -90 138 -57 220 -105 397 -238 224 -167 300 -204 443 -215
80 -6 211 13 286 41 38 14 38 14 -31 7 -127 -13 -275 -7 -335 13 -101 33 -151
65 -335 214 -247 201 -270 219 -342 265 -165 106 -356 146 -558 116z"/>
<path d="M778 1544 c-48 -7 -166 -32 -262 -53 -190 -44 -328 -61 -421 -54 -50
4 -58 3 -47 -8 25 -27 300 -18 502 15 290 47 445 38 470 -29 19 -49 12 -94
-18 -124 -15 -15 -34 -30 -42 -33 -34 -12 1 -18 44 -7 111 28 152 178 69 255
-50 46 -159 60 -295 38z"/>
<path d="M3950 1503 c0 -5 22 -22 48 -40 75 -52 160 -141 189 -202 26 -51 28
-65 27 -166 0 -85 -6 -131 -26 -202 -14 -51 -22 -93 -18 -93 11 0 70 86 91
136 46 104 42 243 -10 358 -50 111 -121 172 -236 202 -58 16 -65 17 -65 7z"/>
<path d="M85 1402 c17 -18 159 -71 236 -88 85 -18 273 -21 339 -6 24 6 46 9
48 7 2 -2 -6 -30 -18 -62 -32 -82 -31 -194 3 -286 27 -74 65 -137 84 -137 12
0 10 12 -13 95 -11 36 -14 103 -14 240 l2 190 -54 -1 c-29 -1 -116 -3 -193 -5
-155 -4 -301 16 -410 57 -14 5 -17 4 -10 -4z"/>
<path d="M1400 1196 c0 -3 14 -47 31 -97 64 -191 19 -296 -148 -344 -62 -18
-58 -8 -74 -200 -6 -77 -12 -142 -14 -144 -6 -6 -232 21 -246 29 -8 6 -4 22
16 58 32 58 50 69 77 45 26 -23 46 -4 32 33 -18 53 -66 57 -122 9 -17 -14 -32
-22 -35 -18 -2 5 -17 55 -33 113 -23 87 -28 126 -28 227 -1 107 -3 119 -14 97
-22 -43 -44 -165 -36 -208 3 -23 19 -85 35 -138 18 -59 29 -124 31 -166 l1
-70 155 -43 c116 -32 158 -40 170 -32 12 7 27 60 51 185 l35 176 43 6 c42 5
94 29 141 62 21 16 22 15 38 -22 28 -67 90 -148 169 -222 70 -65 105 -87 105
-64 0 5 -10 20 -21 33 -122 138 -201 310 -228 497 -13 88 -39 142 -84 176 -32
25 -47 31 -47 22z"/>
<path d="M3637 936 c-55 -20 -85 -53 -102 -110 -8 -27 -15 -51 -15 -53 0 -10
21 3 60 38 69 62 114 82 203 87 42 2 77 8 77 12 0 10 -67 29 -130 35 -36 3
-68 0 -93 -9z"/>
<path d="M2042 815 c-50 -22 -109 -71 -142 -120 -44 -63 -37 -71 23 -26 29 22
79 52 111 67 52 24 67 26 136 21 54 -3 98 -14 150 -36 41 -17 75 -29 77 -27 9
9 -87 81 -142 107 -69 33 -156 39 -213 14z"/>
<path d="M4275 597 c50 -92 67 -145 67 -209 -1 -62 -19 -106 -61 -151 -42 -46
-73 -57 -158 -57 -81 0 -143 14 -209 48 -97 50 -312 224 -327 266 -9 23 9 27
-463 -90 -210 -52 -389 -94 -398 -94 -9 0 -29 20 -44 45 -15 25 -30 45 -33 45
-4 0 -1 -21 7 -47 8 -27 17 -82 20 -123 6 -68 4 -78 -18 -110 -41 -60 -96 -83
-213 -88 -126 -6 -212 18 -319 88 -87 57 -152 127 -252 271 -42 61 -78 108
-81 106 -9 -10 50 -165 87 -227 52 -87 83 -123 154 -177 124 -93 125 -93 381
-93 218 0 227 1 256 22 64 48 85 121 65 226 -7 36 -6 42 9 42 9 0 78 13 153
30 284 61 662 140 672 140 6 0 27 -26 47 -57 20 -32 67 -88 105 -125 87 -86
214 -151 333 -171 95 -17 88 -20 -110 -43 -77 -9 -149 -18 -160 -19 -11 -2
-87 -11 -170 -20 -82 -9 -154 -18 -160 -20 -5 -3 107 -3 250 -1 211 3 282 7
377 25 149 26 204 56 121 63 -40 4 -38 5 39 33 56 20 122 83 151 145 31 64 30
178 -2 239 -23 44 -123 151 -141 151 -5 0 6 -28 25 -63z"/>
</g>
</svg>
